<svg xmlns="http://www.w3.org/2000/svg"  viewBox="0 0 100 100" width="200px" height="200px"><path d="M 81.5 9 C 81.026 9 80.658203 9.1035156 80.658203 9.1035156 A 1.0001 1.0001 0 0 0 80.650391 9.1054688 L 65.539062 12.222656 A 1.0001 1.0001 0 0 0 64.910156 12.648438 C 64.480336 12.857431 64.080525 13.119284 63.720703 13.423828 A 0.50005 0.50005 0 0 0 63.697266 13.423828 A 0.50005 0.50005 0 0 0 63.324219 13.617188 L 39.158203 44 L 39 44 C 36.60454 44 34.682779 45.741814 34.203125 48 L 19 48 C 16.250484 48 14 50.250484 14 53 L 14 63 C 14 65.749516 16.250484 68 19 68 L 28 68 L 28 71 L 23 71 C 18.041484 71 14 75.041484 14 80 C 14 84.958516 18.041484 89 23 89 L 59 89 C 63.958516 89 68 84.958516 68 80 C 68 75.041484 63.958516 71 59 71 L 54 71 L 54 68 L 63 68 C 65.407153 68 67.431549 66.274577 67.898438 64 L 74 64 L 81 64 L 81 69.279297 L 78.683594 70.050781 A 1.0005646 1.0005646 0 1 0 79.316406 71.949219 L 81 71.388672 L 81 75.279297 L 78.683594 76.050781 A 1.0005646 1.0005646 0 1 0 79.316406 77.949219 L 81 77.388672 L 81 81.279297 L 78.683594 82.050781 A 1.0005646 1.0005646 0 1 0 79.316406 83.949219 L 81 83.388672 L 81 86 A 1.0001 1.0001 0 1 0 83 86 L 83 82.720703 L 85.316406 81.949219 A 1.0005646 1.0005646 0 1 0 84.683594 80.050781 L 83 80.611328 L 83 76.720703 L 85.316406 75.949219 A 1.0005646 1.0005646 0 1 0 84.683594 74.050781 L 83 74.611328 L 83 70.720703 L 85.316406 69.949219 A 1.0005646 1.0005646 0 1 0 84.683594 68.050781 L 83 68.611328 L 83 64 L 83.5 64 C 84.874985 64 86 62.874985 86 61.5 L 86 58.5 C 86 57.125015 84.874985 56 83.5 56 L 83 56 L 83 29 L 83.5 29 C 84.322531 29 85 28.322531 85 27.5 L 85 26.5 C 85 25.677469 84.322531 25 83.5 25 L 82.5 25 L 82.5 16.082031 L 83.40625 15.425781 L 83.349609 15.462891 C 84.334439 14.847197 85 13.746722 85 12.5 C 85 10.578812 83.421188 9 81.5 9 z M 81.5 11 C 82.340812 11 83 11.659188 83 12.5 C 83 13.041278 82.718232 13.499271 82.289062 13.767578 A 1.0001 1.0001 0 0 0 82.234375 13.804688 L 73.414062 20.189453 A 1.0001 1.0001 0 0 0 73 21 L 73 62 L 68 62 L 68 59.580078 A 0.50005 0.50005 0 0 0 68 59.417969 L 68 21.605469 A 1.0001 1.0001 0 0 0 68 21.355469 L 68 21 A 1.0001 1.0001 0 0 0 67 20 C 65.331516 20 64 18.668484 64 17 C 64 15.667143 64.863868 14.568062 66.060547 14.169922 A 1.0001 1.0001 0 0 0 66.732422 13.070312 L 66.876953 13.988281 L 81.046875 11.064453 L 81.054688 11.0625 C 81.070849 11.060356 81.525545 11 81.5 11 z M 81.5 16.804688 L 81.5 25 L 75 25 L 75 21.509766 L 81.5 16.804688 z M 62.009766 16.873047 C 62.00856 16.916163 62 16.956491 62 17 C 62 19.24674 63.530326 21.086248 65.580078 21.710938 L 48.564453 44 L 40.433594 44 L 62.009766 16.873047 z M 66 24.458984 L 66 53.84375 L 55.484375 44.947266 A 1.0001 1.0001 0 0 0 55.484375 44.945312 C 54.762767 44.335588 53.84701 44 52.900391 44 L 51.082031 44 L 66 24.458984 z M 75 26 L 83.5 26 C 83.781469 26 84 26.218531 84 26.5 L 84 27.5 C 84 27.781469 83.781469 28 83.5 28 L 82.154297 28 A 1.0001 1.0001 0 0 0 81.984375 27.986328 A 1.0001 1.0001 0 0 0 81.839844 28 L 75 28 L 75 26 z M 75 29 L 81 29 L 81 56 L 75 56 L 75 29 z M 39 46 L 52.900391 46 C 53.373771 46 53.830967 46.168381 54.193359 46.474609 L 54.193359 46.472656 L 65.292969 55.865234 C 65.740854 56.245663 66 56.803559 66 57.390625 L 66 59 L 53.5 59 C 51.561258 59 50 57.438742 50 55.5 A 0.50005 0.50005 0 0 0 49.492188 54.992188 A 0.50005 0.50005 0 0 0 49 55.5 C 49 57.979258 51.020742 60 53.5 60 L 66 60 L 66 63 C 66 64.668484 64.668484 66 63 66 L 19 66 C 17.331516 66 16 64.668484 16 63 L 16 53 C 16 51.331516 17.331516 50 19 50 L 35 50 A 1.0001 1.0001 0 0 0 36 49 C 36 47.331516 37.331516 46 39 46 z M 49.492188 46.992188 A 0.50005 0.50005 0 0 0 49 47.5 L 49 48.5 A 0.50005 0.50005 0 1 0 50 48.5 L 50 47.5 A 0.50005 0.50005 0 0 0 49.492188 46.992188 z M 49.492188 50.992188 A 0.50005 0.50005 0 0 0 49 51.5 L 49 53.5 A 0.50005 0.50005 0 1 0 50 53.5 L 50 51.5 A 0.50005 0.50005 0 0 0 49.492188 50.992188 z M 19.5 53 A 0.50005 0.50005 0 1 0 19.5 54 L 29.5 54 A 0.50005 0.50005 0 1 0 29.5 53 L 19.5 53 z M 19.5 56 A 0.50005 0.50005 0 1 0 19.5 57 L 25.5 57 A 0.50005 0.50005 0 1 0 25.5 56 L 19.5 56 z M 28.5 56 A 0.50005 0.50005 0 1 0 28.5 57 L 29.5 57 A 0.50005 0.50005 0 1 0 29.5 56 L 28.5 56 z M 75 57 L 81.832031 57 A 1.0001 1.0001 0 0 0 82.158203 57 L 83.5 57 C 84.335015 57 85 57.664985 85 58.5 L 85 61.5 C 85 62.335015 84.335015 63 83.5 63 L 82.154297 63 A 1.0001 1.0001 0 0 0 81.984375 62.986328 A 1.0001 1.0001 0 0 0 81.839844 63 L 75 63 L 75 57 z M 19.5 59 A 0.50005 0.50005 0 1 0 19.5 60 L 29.5 60 A 0.50005 0.50005 0 1 0 29.5 59 L 19.5 59 z M 19.5 62 A 0.50005 0.50005 0 1 0 19.5 63 L 21.5 63 A 0.50005 0.50005 0 1 0 21.5 62 L 19.5 62 z M 24.5 62 A 0.50005 0.50005 0 1 0 24.5 63 L 29.5 63 A 0.50005 0.50005 0 1 0 29.5 62 L 24.5 62 z M 30 68 L 52 68 L 52 71 L 30 71 L 30 68 z M 23 73 L 28 73 L 54 73 L 59 73 C 62.877484 73 66 76.122516 66 80 C 66 83.877484 62.877484 87 59 87 L 23 87 C 19.122516 87 16 83.877484 16 80 C 16 76.122516 19.122516 73 23 73 z M 23 76 C 21.708334 76 20.676923 76.502378 20.001953 77.261719 C 19.326984 78.02106 19 79.013889 19 80 C 19 80.986111 19.326984 81.97894 20.001953 82.738281 C 20.676923 83.497622 21.708334 84 23 84 C 24.291666 84 25.323077 83.497622 25.998047 82.738281 C 26.673016 81.97894 27 80.986111 27 80 C 27 79.013889 26.673016 78.02106 25.998047 77.261719 C 25.323077 76.502378 24.291666 76 23 76 z M 35 76 C 33.708334 76 32.676923 76.502378 32.001953 77.261719 C 31.326984 78.02106 31 79.013889 31 80 C 31 80.986111 31.326984 81.97894 32.001953 82.738281 C 32.676923 83.497622 33.708334 84 35 84 C 36.291666 84 37.323077 83.497622 37.998047 82.738281 C 38.673016 81.97894 39 80.986111 39 80 C 39 79.013889 38.673016 78.02106 37.998047 77.261719 C 37.323077 76.502378 36.291666 76 35 76 z M 47 76 C 45.708334 76 44.676923 76.502378 44.001953 77.261719 C 43.326984 78.02106 43 79.013889 43 80 C 43 80.986111 43.326984 81.97894 44.001953 82.738281 C 44.676923 83.497622 45.708334 84 47 84 C 48.291666 84 49.323077 83.497622 49.998047 82.738281 C 50.673016 81.97894 51 80.986111 51 80 C 51 79.013889 50.673016 78.02106 49.998047 77.261719 C 49.323077 76.502378 48.291666 76 47 76 z M 59 76 C 57.708334 76 56.676923 76.502378 56.001953 77.261719 C 55.326984 78.02106 55 79.013889 55 80 C 55 80.986111 55.326984 81.97894 56.001953 82.738281 C 56.676923 83.497622 57.708334 84 59 84 C 60.291666 84 61.323077 83.497622 61.998047 82.738281 C 62.673016 81.97894 63 80.986111 63 80 C 63 79.013889 62.673016 78.02106 61.998047 77.261719 C 61.323077 76.502378 60.291666 76 59 76 z M 23 77 C 24.041666 77 24.760256 77.372622 25.251953 77.925781 C 25.74365 78.47894 26 79.236111 26 80 C 26 80.763889 25.74365 81.52106 25.251953 82.074219 C 24.760256 82.627378 24.041666 83 23 83 C 21.958334 83 21.239744 82.627378 20.748047 82.074219 C 20.25635 81.52106 20 80.763889 20 80 C 20 79.236111 20.25635 78.47894 20.748047 77.925781 C 21.239744 77.372622 21.958334 77 23 77 z M 35 77 C 36.041666 77 36.760256 77.372622 37.251953 77.925781 C 37.74365 78.47894 38 79.236111 38 80 C 38 80.763889 37.74365 81.52106 37.251953 82.074219 C 36.760256 82.627378 36.041666 83 35 83 C 33.958334 83 33.239744 82.627378 32.748047 82.074219 C 32.25635 81.52106 32 80.763889 32 80 C 32 79.236111 32.25635 78.47894 32.748047 77.925781 C 33.239744 77.372622 33.958334 77 35 77 z M 47 77 C 48.041666 77 48.760256 77.372622 49.251953 77.925781 C 49.74365 78.47894 50 79.236111 50 80 C 50 80.763889 49.74365 81.52106 49.251953 82.074219 C 48.760256 82.627378 48.041666 83 47 83 C 45.958334 83 45.239744 82.627378 44.748047 82.074219 C 44.25635 81.52106 44 80.763889 44 80 C 44 79.236111 44.25635 78.47894 44.748047 77.925781 C 45.239744 77.372622 45.958334 77 47 77 z M 59 77 C 60.041666 77 60.760256 77.372622 61.251953 77.925781 C 61.74365 78.47894 62 79.236111 62 80 C 62 80.763889 61.74365 81.52106 61.251953 82.074219 C 60.760256 82.627378 60.041666 83 59 83 C 57.958334 83 57.239744 82.627378 56.748047 82.074219 C 56.25635 81.52106 56 80.763889 56 80 C 56 79.236111 56.25635 78.47894 56.748047 77.925781 C 57.239744 77.372622 57.958334 77 59 77 z"/></svg>